# xmcd
#
# Track frame offsets: 
#        150
#        16555
#        32891
#        47326
#        65708
#        82220
#        97480
#        114147
#        128924
#        149743
#        164652
#        180188
#
# Disc length: 2596 seconds
#
# Revision: 0
# Processed by: cddbd v1.5.2PL0 Copyright (c) Steve Scherf et al.
# Submitted via: ExactAudioCopy v1.3
#
DISCID=a50a220c
DTITLE=Trickbag - 25 Years of Houserockin' Rhythm 'n' Blues
DYEAR=2019
DGENRE=Blues
TTITLE0=Burglars
TTITLE1=Hey Hey Mama
TTITLE2=Party In The Backyard
TTITLE3=Slow Down Baby
TTITLE4=Getting Drunk
TTITLE5=Rimshot
TTITLE6=Mighty Good Man
TTITLE7=Come Get It
TTITLE8=I Believe
TTITLE9=Ida-Lee
TTITLE10=Highway 1
TTITLE11=Kakadoo
EXTD=
EXTT0=
EXTT1=
EXTT2=
EXTT3=
EXTT4=
EXTT5=
EXTT6=
EXTT7=
EXTT8=
EXTT9=
EXTT10=
EXTT11=
PLAYORDER=
